<?xml version="1.0" encoding="utf-8"?>
<!-- Generator: Adobe Illustrator 19.0.0, SVG Export Plug-In . SVG Version: 6.00 Build 0)  -->
<svg version="1.1" id="Layer_1" xmlns="http://www.w3.org/2000/svg" xmlns:xlink="http://www.w3.org/1999/xlink" x="0px" y="0px"
	 viewBox="0 0 237.3 64.8" enable-background="new 0 0 237.3 64.8" xml:space="preserve">
<g id="XMLID_2_">
	<g id="XMLID_1_">
		<g id="XMLID_65_">
			<path id="XMLID_174_" fill="#FF3333" d="M35.3,9.3c-3.1-3.1-7.4-5.1-12.1-5.1h-0.1c-0.1,0-0.1,0-0.2,0s-0.1,0-0.2,0
				c0,0-0.1,0-0.1,0c-9.5,0.2-17.2,8-17.2,17.5v6c0,1.1,0.1,2.3,0.3,3.4c0.8,4.3,3.1,8.1,6.4,10.8c2.2,1.8,4.7,3.1,7.6,3.8
				c0.8,0.2,1.6,0.3,2.4,0.4c0.4,0,0.8,0.1,1.2,0.1h0c0,0,0.1,0,0.1,0c0.2,0,0.4,0,0.6,0c4.5,0,8.6-1.6,11.8-4.3l0,0
				c0.1-0.1,0.2-0.2,0.3-0.2c1.2-1.1,1.5-2.9,0.6-4.3c-0.7-1.2-2-1.8-3.3-1.7c-0.5,0-1,0.2-1.5,0.5c-0.1,0.1-0.3,0.2-0.4,0.3
				c-0.1,0.1-0.1,0.1-0.2,0.2c0,0,0,0,0,0c-2,1.6-4.5,2.6-7.3,2.6c-3,0-5.7-1.2-7.8-3.1c-1.3-1.2-2.4-2.7-3-4.4
				c-0.4-1-0.6-2-0.7-3.1h24.5c1.9,0,3.5-1.6,3.5-3.5v-3.5C40.4,16.9,38.5,12.5,35.3,9.3z M12.4,21.7c0-1.2,0.2-2.4,0.6-3.5
				c1.4-4.1,5.3-7,9.9-7c2.9,0,5.5,1.2,7.4,3.1c1.1,1.1,2,2.4,2.5,3.9c0.4,1.1,0.6,2.3,0.6,3.5H12.4z"/>
			<path id="XMLID_171_" fill="#FF3333" d="M109.2,9.3c-3.1-3.1-7.4-5.1-12.1-5.1H97c-0.1,0-0.1,0-0.2,0c-0.1,0-0.1,0-0.2,0
				c0,0-0.1,0-0.1,0c-9.5,0.2-17.2,8-17.2,17.5v6c0,1.1,0.1,2.3,0.3,3.4c0.8,4.3,3.1,8.1,6.4,10.8c2.2,1.8,4.7,3.1,7.6,3.8
				c0.8,0.2,1.6,0.3,2.4,0.4c0.4,0,0.8,0.1,1.2,0.1c0,0,0,0,0,0c0,0,0.1,0,0.1,0c0.2,0,0.4,0,0.6,0c4.5,0,8.6-1.6,11.8-4.3l0,0
				c0.1-0.1,0.2-0.2,0.3-0.2c1.2-1.1,1.5-2.9,0.6-4.3c-0.7-1.2-2-1.8-3.3-1.7c-0.5,0-1,0.2-1.5,0.5c-0.1,0.1-0.3,0.2-0.4,0.3
				c-0.1,0.1-0.1,0.1-0.2,0.2c0,0,0,0,0,0c-2,1.6-4.5,2.6-7.3,2.6c-3,0-5.7-1.2-7.8-3.1c-1.3-1.2-2.4-2.7-3-4.4
				c-0.4-1-0.6-2-0.7-3.1h24.5c1.9,0,3.5-1.6,3.5-3.5v-3.5C114.3,16.9,112.3,12.5,109.2,9.3z M86.3,21.7c0-1.2,0.2-2.4,0.6-3.5
				c1.4-4.1,5.3-7,9.9-7c2.9,0,5.5,1.2,7.4,3.1c1.1,1.1,2,2.4,2.5,3.9c0.4,1.1,0.6,2.3,0.6,3.5H86.3z"/>
			<path id="XMLID_78_" fill="#FF3333" d="M148.7,25.2c-0.5-0.5-1.2-0.9-1.9-1.3c-1-0.5-2.1-1-3.5-1.4c-1.9-0.5-4.2-0.8-7-0.8
				c0,0,0,0,0,0c-12.3,0-8.5-6-8.3-6.4c0,0,0,0,0,0c1.9-2.5,4.9-4,8.3-4.1h0c2.9,0,5.5,1.2,7.4,3.1c0.3,0.3,0.6,0.6,0.8,1
				c0,0,0,0,0,0c0.1,0.2,0.3,0.4,0.4,0.6c0.4,0.5,0.9,1,1.5,1.2l0,0c1.1,0.4,2.3,0.3,3.3-0.4c0.7-0.5,1.2-1.2,1.4-2
				c0.3-1,0-2.1-0.6-3c-0.1-0.2-0.3-0.4-0.4-0.6c-0.5-0.6-1-1.2-1.5-1.7c-3.1-3.1-7.4-5.1-12.1-5.1h-0.1c-0.1,0-0.1,0-0.2,0
				c-0.1,0-0.1,0-0.2,0c0,0-0.1,0-0.1,0c-6,0.1-11.3,3.3-14.4,8c-0.1,0.2-0.2,0.3-0.3,0.5c-0.1,0.2-0.7,1.5-0.8,2.7
				c-0.3,2.4-0.2,6.7,3.4,9.8c0.5,0.5,1.2,0.9,1.9,1.3c1,0.5,2.1,1,3.5,1.4c1.9,0.5,4.2,0.8,7,0.8c0,0,0,0,0,0c12.3,0,8.5,6,8.3,6.4
				c0,0,0,0,0,0c-1.9,2.5-4.9,4-8.3,4.1h0c-2.9,0-5.5-1.2-7.4-3.1c-0.3-0.3-0.6-0.6-0.8-1c0,0,0,0,0,0c-0.1-0.2-0.3-0.4-0.4-0.6
				c-0.4-0.5-0.9-1-1.5-1.2l0,0c-1.1-0.4-2.3-0.3-3.3,0.4c-0.7,0.5-1.2,1.2-1.4,2c-0.3,1,0,2.1,0.6,3c0.1,0.2,0.3,0.4,0.4,0.6
				c0.5,0.6,1,1.2,1.5,1.7c3.1,3.1,7.4,5.1,12.1,5.1h0.1c0.1,0,0.1,0,0.2,0c0.1,0,0.1,0,0.2,0c0,0,0.1,0,0.1,0
				c6-0.1,11.3-3.3,14.4-8c0.1-0.2,0.2-0.3,0.3-0.5c0.1-0.2,0.7-1.5,0.8-2.7C152.4,32.7,152.3,28.3,148.7,25.2z"/>
			<g id="XMLID_73_">
				<path id="XMLID_74_" fill="#FF3333" d="M42.2,5.3c-1.7,1-2.3,3.1-1.3,4.8l13,22.8l-13,22.8c-1,1.7-0.4,3.8,1.3,4.8
					c0.5,0.3,1.1,0.5,1.7,0.5c1.2,0,2.4-0.6,3-1.8l15-26.2L47,6.6C46,5,43.9,4.4,42.2,5.3z"/>
			</g>
			<path id="XMLID_70_" fill="#FF3333" d="M228.3,9.3c-3.1-3.1-7.4-5.1-12.1-5.1h-0.1c-0.1,0-0.1,0-0.2,0c-0.1,0-0.1,0-0.2,0
				c0,0-0.1,0-0.1,0c-9.5,0.2-17.2,8-17.2,17.5v6c0,1.1,0.1,2.3,0.3,3.4c0.8,4.3,3.1,8.1,6.4,10.8c2.2,1.8,4.7,3.1,7.6,3.8
				c0.8,0.2,1.6,0.3,2.4,0.4c0.4,0,0.8,0.1,1.2,0.1h0c0,0,0.1,0,0.1,0c0.2,0,0.4,0,0.6,0c4.5,0,8.6-1.6,11.8-4.3l0,0
				c0.1-0.1,0.2-0.2,0.3-0.2c1.2-1.1,1.5-2.9,0.6-4.3c-0.7-1.2-2-1.8-3.3-1.7c-0.5,0-1,0.2-1.5,0.5c-0.1,0.1-0.3,0.2-0.4,0.3
				c-0.1,0.1-0.1,0.1-0.2,0.2c0,0,0,0,0,0c-2,1.6-4.5,2.6-7.3,2.6c-3,0-5.7-1.2-7.8-3.1c-1.3-1.2-2.4-2.7-3-4.4
				c-0.4-1-0.6-2-0.7-3.1h24.5c1.9,0,3.5-1.6,3.5-3.5v-3.5C233.4,16.9,231.4,12.5,228.3,9.3z M205.4,21.7c0-1.2,0.2-2.4,0.6-3.5
				c1.4-4.1,5.3-7,9.9-7c2.9,0,5.5,1.2,7.4,3.1c1.1,1.1,2,2.4,2.5,3.9c0.4,1.1,0.6,2.3,0.6,3.5H205.4z"/>
			<path id="XMLID_67_" fill="#FF3333" d="M187.2,9.3c-3.1-3.1-7.4-5.1-12.1-5.1H175c-0.1,0-0.1,0-0.2,0c-0.1,0-0.1,0-0.2,0
				c0,0-0.1,0-0.1,0c-9.5,0.2-17.2,8-17.2,17.5v6c0,1.1,0.1,2.3,0.3,3.4c0.8,4.3,3.1,8.1,6.4,10.8c2.2,1.8,4.7,3.1,7.6,3.8
				c0.8,0.2,1.6,0.3,2.4,0.4c0.4,0,0.8,0.1,1.2,0.1c0,0,0,0,0,0c0,0,0.1,0,0.1,0c0.2,0,0.4,0,0.6,0c4.5,0,8.6-1.6,11.8-4.3l0,0
				c0.1-0.1,0.2-0.2,0.3-0.2c1.2-1.1,1.5-2.9,0.6-4.3c-0.7-1.2-2-1.8-3.3-1.7c-0.5,0-1,0.2-1.5,0.5c-0.1,0.1-0.3,0.2-0.4,0.3
				c-0.1,0.1-0.1,0.1-0.2,0.2c0,0,0,0,0,0c-2,1.6-4.5,2.6-7.3,2.6c-3,0-5.7-1.2-7.8-3.1c-1.3-1.2-2.4-2.7-3-4.4
				c-0.4-1-0.6-2-0.7-3.1h24.5c1.9,0,3.5-1.6,3.5-3.5v-3.5C192.4,16.9,190.4,12.5,187.2,9.3z M164.4,21.7c0-1.2,0.2-2.4,0.6-3.5
				c1.4-4.1,5.3-7,9.9-7c2.9,0,5.5,1.2,7.4,3.1c1.1,1.1,2,2.4,2.5,3.9c0.4,1.1,0.6,2.3,0.6,3.5H164.4z"/>
		</g>
	</g>
	<linearGradient id="XMLID_108_" gradientUnits="userSpaceOnUse" x1="60.4558" y1="6.5633" x2="72.7908" y2="21.1794">
		<stop  offset="3.281460e-007" style="stop-color:#6699CC"/>
		<stop  offset="0.45" style="stop-color:#996699"/>
		<stop  offset="0.8" style="stop-color:#FF3333"/>
	</linearGradient>
	<path id="XMLID_75_" fill="url(#XMLID_108_)" d="M66.6,4.2c-5.3,0-9.6,4.3-9.6,9.6c0,5.3,4.3,9.6,9.6,9.6c5.3,0,9.6-4.3,9.6-9.6
		C76.2,8.5,71.9,4.2,66.6,4.2z M66.6,17.3c-1.9,0-3.5-1.6-3.5-3.5c0-1.9,1.6-3.5,3.5-3.5c1.9,0,3.5,1.6,3.5,3.5
		C70.1,15.8,68.5,17.3,66.6,17.3z"/>
</g>
</svg>
